<svg width="30" height="30" viewBox="0 0 30 30" fill="none" xmlns="http://www.w3.org/2000/svg">
<path d="M27.1875 0H19.6875C18.1348 0 16.875 1.43973 16.875 3.21429V11.7857C16.875 13.5603 18.1348 15 19.6875 15H24.375V19.2857C24.375 21.6496 22.6934 23.5714 20.625 23.5714H20.1562C19.377 23.5714 18.75 24.2879 18.75 25.1786V28.3929C18.75 29.2835 19.377 30 20.1562 30H20.625C25.8047 30 30 25.2054 30 19.2857V3.21429C30 1.43973 28.7402 0 27.1875 0ZM10.3125 0H2.8125C1.25977 0 0 1.43973 0 3.21429V11.7857C0 13.5603 1.25977 15 2.8125 15H7.5V19.2857C7.5 21.6496 5.81836 23.5714 3.75 23.5714H3.28125C2.50195 23.5714 1.875 24.2879 1.875 25.1786V28.3929C1.875 29.2835 2.50195 30 3.28125 30H3.75C8.92969 30 13.125 25.2054 13.125 19.2857V3.21429C13.125 1.43973 11.8652 0 10.3125 0Z" fill="#228AE6"/>
</svg>
